# xmcd CD database file
#
# Track frame offsets:
#	150
#	29127
#	53307
#	77249
#	105923
#	132415
#	161202
#	189061
#	216813
#	220667
#	240952
#	256541
#	278618
#	295728
#	299093
#
# Disc length: 4255 seconds
#
# Revision: 2
# Processed by: cddbd v1.5.1PL2 Copyright (c) Steve Scherf et al.
# Submitted via: CDex 1.51
#
DISCID=cf109d0f
DTITLE=Transglobal Underground - International Times
DYEAR=1994
DGENRE=Ethnic
TTITLE0=Lookee here
TTITLE1=Taal Zaman
TTITLE2=Dustbowl
TTITLE3=Jatayu
TTITLE4=Holy roman empire
TTITLE5=Monter au ciel
TTITLE6=Tromba marina
TTITLE7=International times
TTITLE8=Sumeria
TTITLE9=Protean
TTITLE10=Ana
TTITLE11=Topkapi
TTITLE12=Pirhana one chord boots
TTITLE13=Chaldea
TTITLE14=Dopi
EXTD=YEAR: 1994
EXTT0=
EXTT1=
EXTT2=
EXTT3=
EXTT4=
EXTT5=
EXTT6=
EXTT7=
EXTT8=
EXTT9=
EXTT10=
EXTT11=
EXTT12=
EXTT13=
EXTT14=
PLAYORDER=
